<?xml version="1.0" encoding="UTF-8" standalone="no"?>
<!-- Created with Inkscape (http://www.inkscape.org/) -->

<svg
   width="210mm"
   height="297mm"
   viewBox="0 0 210 297"
   version="1.1"
   id="svg5"
   inkscape:version="1.2.1 (9c6d41e410, 2022-07-14)"
   sodipodi:docname="drawing.svg"
   xmlns:inkscape="http://www.inkscape.org/namespaces/inkscape"
   xmlns:sodipodi="http://sodipodi.sourceforge.net/DTD/sodipodi-0.dtd"
   xmlns:xlink="http://www.w3.org/1999/xlink"
   xmlns="http://www.w3.org/2000/svg"
   xmlns:svg="http://www.w3.org/2000/svg">
  <sodipodi:namedview
     id="namedview7"
     pagecolor="#505050"
     bordercolor="#ffffff"
     borderopacity="1"
     inkscape:showpageshadow="0"
     inkscape:pageopacity="0"
     inkscape:pagecheckerboard="1"
     inkscape:deskcolor="#505050"
     inkscape:document-units="mm"
     showgrid="false"
     inkscape:zoom="0.25166597"
     inkscape:cx="-749.00871"
     inkscape:cy="659.60449"
     inkscape:window-width="1366"
     inkscape:window-height="745"
     inkscape:window-x="-8"
     inkscape:window-y="-8"
     inkscape:window-maximized="1"
     inkscape:current-layer="layer1" />
  <defs
     id="defs2">
    <linearGradient
       inkscape:collect="always"
       id="linearGradient9595">
      <stop
         style="stop-color:#74735f;stop-opacity:0;"
         offset="0.15434083"
         id="stop9593" />
      <stop
         style="stop-color:#74735f;stop-opacity:1;"
         offset="0.85852093"
         id="stop9591" />
    </linearGradient>
    <linearGradient
       inkscape:collect="always"
       id="linearGradient9410">
      <stop
         style="stop-color:#adac9b;stop-opacity:0.39622644;"
         offset="0"
         id="stop9406" />
      <stop
         style="stop-color:#adac9b;stop-opacity:0;"
         offset="0.73311895"
         id="stop9408" />
    </linearGradient>
    <linearGradient
       inkscape:collect="always"
       id="linearGradient9392">
      <stop
         style="stop-color:#adac9b;stop-opacity:0.25786164;"
         offset="0"
         id="stop9388" />
      <stop
         style="stop-color:#adac9b;stop-opacity:0;"
         offset="0.73633438"
         id="stop9390" />
    </linearGradient>
    <linearGradient
       inkscape:collect="always"
       id="linearGradient9327">
      <stop
         style="stop-color:#adac9b;stop-opacity:0.42138368;"
         offset="0"
         id="stop9323" />
      <stop
         style="stop-color:#adac9b;stop-opacity:0;"
         offset="1"
         id="stop9325" />
    </linearGradient>
    <radialGradient
       inkscape:collect="always"
       xlink:href="#linearGradient9327"
       id="radialGradient9329"
       cx="46.378451"
       cy="70.348418"
       fx="46.378451"
       fy="70.348418"
       r="28.579856"
       gradientTransform="matrix(1,0,0,0.39904547,0,42.276201)"
       gradientUnits="userSpaceOnUse" />
    <radialGradient
       inkscape:collect="always"
       xlink:href="#linearGradient9392"
       id="radialGradient9396"
       cx="66.744751"
       cy="89.549812"
       fx="66.744751"
       fy="89.549812"
       r="52.610115"
       gradientTransform="matrix(1,0,0,0.12411997,0,78.434893)"
       gradientUnits="userSpaceOnUse" />
    <radialGradient
       inkscape:collect="always"
       xlink:href="#linearGradient9410"
       id="radialGradient9412"
       cx="67.084543"
       cy="97.759757"
       fx="67.084543"
       fy="97.759757"
       r="51.315427"
       gradientTransform="matrix(1,0,0,0.23566153,0,74.721543)"
       gradientUnits="userSpaceOnUse" />
    <linearGradient
       inkscape:collect="always"
       xlink:href="#linearGradient9595"
       id="linearGradient9599"
       x1="-4.2038293"
       y1="151.32965"
       x2="184.53777"
       y2="151.32965"
       gradientUnits="userSpaceOnUse" />
    <filter
       inkscape:collect="always"
       style="color-interpolation-filters:sRGB"
       id="filter9607"
       x="-0.012715548"
       y="-0.022455679"
       width="1.0258711"
       height="1.0437588">
      <feGaussianBlur
         inkscape:collect="always"
         stdDeviation="0.89206447"
         id="feGaussianBlur9609" />
    </filter>
    <filter
       inkscape:collect="always"
       style="color-interpolation-filters:sRGB"
       id="filter9611"
       x="-0.15363878"
       y="-0.6519468"
       width="1.3072776"
       height="2.3038936">
      <feGaussianBlur
         inkscape:collect="always"
         stdDeviation="6.570033"
         id="feGaussianBlur9613" />
    </filter>
    <filter
       inkscape:collect="always"
       style="color-interpolation-filters:sRGB"
       id="filter9615"
       x="-0.084520439"
       y="-0.8638956"
       width="1.1690409"
       height="2.7277912">
      <feGaussianBlur
         inkscape:collect="always"
         stdDeviation="4.2496201"
         id="feGaussianBlur9617" />
    </filter>
    <filter
       inkscape:collect="always"
       style="color-interpolation-filters:sRGB"
       id="filter9619"
       x="-0.055676994"
       y="-0.44857401"
       width="1.111354"
       height="1.897148">
      <feGaussianBlur
         inkscape:collect="always"
         stdDeviation="2.4409776"
         id="feGaussianBlur9621" />
    </filter>
    <filter
       inkscape:collect="always"
       style="color-interpolation-filters:sRGB"
       id="filter9623"
       x="-0.1627337"
       y="-0.40780742"
       width="1.3254674"
       height="1.8156148">
      <feGaussianBlur
         inkscape:collect="always"
         stdDeviation="3.8757548"
         id="feGaussianBlur9625" />
    </filter>
    <filter
       inkscape:collect="always"
       style="color-interpolation-filters:sRGB"
       id="filter9627"
       x="-0.020113664"
       y="-0.02091821"
       width="1.0402273"
       height="1.0418364">
      <feGaussianBlur
         inkscape:collect="always"
         stdDeviation="0.22908217"
         id="feGaussianBlur9629" />
    </filter>
    <filter
       inkscape:collect="always"
       style="color-interpolation-filters:sRGB"
       id="filter9631"
       x="-0.03147726"
       y="-0.030328452"
       width="1.0629545"
       height="1.0606569">
      <feGaussianBlur
         inkscape:collect="always"
         stdDeviation="0.68254122"
         id="feGaussianBlur9633" />
    </filter>
  </defs>
  <g
     inkscape:label="Layer 1"
     inkscape:groupmode="layer"
     id="layer1">
    <path
       id="rect7115"
       style="fill:#2c1a0e;fill-opacity:1;stroke-width:0.264583"
       d="M 1.0510986,0.52554932 V 201.56702 c 1.1312594,1.21251 1.1311921,2.87828 0,4.12172 v 10.8846 H 209.2141 V 0.52554932 Z" />
    <path
       id="path9470"
       style="mix-blend-mode:normal;fill:url(#linearGradient9599);fill-opacity:1;fill-rule:nonzero;stroke:#d79e9e;stroke-width:0.264583;stroke-opacity:0;opacity:0.854;filter:url(#filter9607)"
       d="M 90.939669,98.036393 77.00977,120.63966 c 0,0 -5.157729,-18.28709 -77.7513268,79.78532 2.286682,0.84406 3.0881914,2.72353 2.4060547,4.32118 H 184.24508 l -69.38749,-78.84945 -2.62826,7.88479 z" />
    <path
       id="rect111"
       style="fill:#000000;stroke-width:0.24601"
       d="m -0.2795695,217.42549 c 2.0573e-4,0.42083 4.2354e-4,0.84168 5.1677e-4,1.26245 1.3137e-4,0.71369 -1.843e-5,1.42728 0,2.14096 1.209e-5,0.59183 -2.86e-6,1.18377 0,1.7756 2.3e-6,0.48886 -0.0917178,0.34802 0.0170532,0.50281 0.0895309,0.73448 0.16004765,1.47107 0.24959717,2.20555 0.06469909,0.76255 0.18278238,1.51536 0.32814534,2.2655 0.21327088,1.00619 0.33575881,2.0253 0.41186117,3.04994 0.11355255,1.36155 0.0501193,2.72345 -0.0516764,4.08295 -0.0688364,1.40443 -0.32806054,2.78883 -0.550354,4.17443 -0.13756155,1.09832 -0.37155123,2.17958 -0.56999105,3.2675 -0.0894703,0.5036 -0.12598193,1.01435 -0.15244547,1.52445 -0.0334729,0.77435 -0.0375922,1.54947 -0.0434082,2.32441 -0.005989,0.94931 -0.007451,1.89856 -0.008785,2.84789 4.435e-4,0.85023 0.006338,1.69999 -0.0237712,2.54971 -0.041926,0.68188 -0.0894151,1.36342 -0.12143961,2.04587 -0.0702383,1.49678 -0.31719404,2.80106 -0.69349774,3.91863 3.626e-4,2.00468 9.763e-4,4.00934 0.00103,6.0141 7.58e-5,2.49073 -1.05e-5,4.98169 0,7.47241 -0.00475,3.27203 0.2619708,6.53745 0.4185791,9.80457 0.26729215,3.00891 -0.019796,6.06621 0.36380213,9.06198 0.34948976,2.06727 0.60094207,4.14676 0.80615234,6.23166 H 209.47455 v -78.52337 z m -35.3099895,56.18262 c -0.03491,0.007 0.03685,0.092 0.213941,0.21187 -0.0026,-0.0345 -0.0051,-0.0689 -0.0078,-0.10335 -0.109321,-0.0772 -0.18276,-0.11294 -0.206189,-0.10852 z m 19.310966,6.86159 c -1.34e-4,0.001 -3.82e-4,0.002 -5.17e-4,0.003 0.0036,5.6e-4 0.0072,0.001 0.01085,0.002 -0.0036,-0.002 -0.0067,-0.003 -0.01034,-0.005 z" />
    <path
       id="path167"
       style="fill:#000000;stroke-width:0.24601"
       d="m 85.881063,198.70105 a 124.38457,19.026739 0 0 0 -83.9829876,5.01571 c -0.048416,1.33898 -1.07140689,2.66856 -3.0551107,3.30471 0.23543664,0.91432 0.39184855,1.85001 0.54415281,2.78123 0.14547589,0.87655 0.21925167,1.76216 0.27130127,2.64841 0.0380721,0.70848 0.0468825,1.41819 0.0537435,2.12752 0.0052,0.66308 0.006715,1.32593 0.007751,1.98903 8.0634e-4,0.70668 8.7696e-4,1.41359 0.001034,2.12028 1.3137e-4,0.71369 -1.843e-5,1.42728 0,2.14096 1.209e-5,0.59183 -2.86e-6,1.18377 0,1.7756 2.3e-6,0.48886 -0.0917178,0.34802 0.0170532,0.50281 0.0895309,0.73448 0.16004765,1.47107 0.24959717,2.20555 0.06469909,0.76255 0.18278238,1.51536 0.32814534,2.2655 0.21327088,1.00619 0.33575881,2.0253 0.41186117,3.04994 0.0262904,0.31523 0.0421233,0.63044 0.0511597,0.94568 A 124.38457,19.026739 0 0 0 85.881063,236.75454 124.38457,19.026739 0 0 0 210.26572,217.7278 124.38457,19.026739 0 0 0 85.881063,198.70105 Z m -108.524642,16.34474 c -0.04684,0.0996 -0.09261,0.19987 -0.13901,0.29972 0.04391,-0.02 0.08779,-0.0401 0.132292,-0.0574 0.0019,-0.0808 0.0043,-0.16159 0.0067,-0.24236 z" />
    <path
       id="path361"
       style="fill:#090101;stroke-width:1.98676;fill-opacity:1"
       transform="scale(0.26458333)"
       d="m 324.75977,752.88868 c -53.10832,0.002 -106.19261,0.67622 -133.03711,2.01953 -72.2803,3.61694 -133.966253,9.22207 -184.6738318,16.32422 -0.7316918,4.60758 -4.5852557,8.97121 -11.4316408,11.17578 0.8949463,3.46692 1.4888052,7.0153 2.0664063,10.54688 0.5498301,3.31294 0.8286678,6.66012 1.0253907,10.00976 0.1438946,2.67772 0.1771937,5.36009 0.203125,8.04102 0.019653,2.50613 0.025381,5.01138 0.029297,7.51758 0.00305,2.67091 0.00331,5.34272 0.00391,8.01367 4.965e-4,2.69741 -6.97e-5,5.39443 0,8.0918 4.57e-5,2.23683 -1.08e-5,4.4741 0,6.71093 8.7e-6,1.84766 -0.3466499,1.31536 0.0644531,1.90039 0.33838444,2.77599 0.60490452,5.55996 0.94335939,8.33594 0.244532,2.88208 0.69083105,5.72733 1.2402344,8.5625 0.8060632,3.80292 1.2690097,7.6547 1.5566406,11.52735 0.4291751,5.14601 0.1894275,10.29334 -0.1953125,15.43164 -0.2601691,5.30807 -1.2399139,10.54043 -2.08007812,15.77734 -0.51991769,4.15113 -1.40428812,8.23779 -2.15429688,12.34961 -0.3381556,1.90337 -0.4761522,3.83378 -0.5761719,5.76172 -0.1265119,2.92667 -0.1420808,5.85625 -0.1640625,8.78516 -0.022636,3.58794 -0.028161,7.17565 -0.033203,10.76367 0.00168,3.21346 0.023956,6.42518 -0.089844,9.63672 -0.1584603,2.57718 -0.3379468,5.15308 -0.4589844,7.73242 -0.2654675,5.65712 -1.1988438,10.58666 -2.6210937,14.81055 0.00136,7.5768 0.00363,15.15345 0.00391,22.73047 2.865e-4,9.41377 -3.97e-5,18.82847 0,28.24217 -0.017938,12.3667 0.9901249,24.7085 1.5820313,37.0567 1.010237,11.3717 -0.074816,22.9274 1.375,34.25 1.3209063,7.8128 2.27127707,15.6727 3.04687503,23.5527 H 321.78321 790.5879 l 0.56836,-150.49806 c 0.64913,-171.96678 2.54747,-154.81386 -18.30664,-165.36328 -44.59697,-22.56017 -160.06657,-40.08369 -314.9004,-47.78907 -26.94628,-1.34091 -80.08113,-2.0101 -133.18945,-2.00781 z m -410.341802,59.88281 c -0.177025,0.37656 -0.350028,0.75542 -0.525391,1.13282 0.165944,-0.0758 0.331796,-0.1519 0.5,-0.2168 0.0073,-0.30546 0.01613,-0.61074 0.02539,-0.91602 z m -48.929688,221.33791 c -0.13195,0.025 0.13926,0.3479 0.80859,0.8008 -0.01,-0.1303 -0.0192,-0.2604 -0.0293,-0.3907 -0.41318,-0.2919 -0.69075,-0.4268 -0.7793,-0.4101 z m 72.986329,25.9355 c -5.15e-4,0 -0.0015,0.01 -0.002,0.01 0.01837,0 0.03634,0.01 0.05469,0.01 -0.01941,-0.01 -0.03326,-0.01 -0.05273,-0.02 z" />
    <path
       style="fill:#090101;fill-opacity:1;stroke-width:0.264583"
       d="m 46.521237,146.66017 c -19.186723,13.93009 -17.741148,15.37567 -17.741148,15.37567 l 5.256636,-1.70841 -8.279203,8.80487 7.096459,-2.62832 -7.753539,9.72478 5.913717,-2.75973 -7.75354,12.61592 6.045133,-2.89115 -8.016372,9.33054 3.416814,-0.7885 -0.131415,1.31416 1.97124,-1.97124 v 1.57699 l 2.102654,-1.44558 0.788495,1.05133 2.23407,-1.31416 0.788496,1.18275 1.839822,-2.89115 -0.525663,2.4969 1.57699,-2.62832 0.262832,3.41682 1.05133,-2.75974 0.525664,2.4969 2.102654,-2.23407 -0.394248,10.64469 15.112831,-0.78849 -1.576991,-9.98762 1.971238,1.18275 1.839823,-1.83982 0.262832,3.15398 0.525663,-3.41682 1.182746,2.49691 0.788495,-3.54823 1.971239,2.23407 0.394247,-2.62832 3.153982,4.73097 0.394248,-3.41681 3.679647,2.89115 -1.314161,-3.67965 6.045133,1.70841 -10.381858,-6.83363 5.125223,0.65708 -8.542036,-8.01637 4.073893,2.23407 -5.913716,-8.67345 3.285398,1.7084 -8.542036,-7.35929 5.782302,1.97124 -8.279204,-5.12522 5.12522,1.18275 5.125222,1.57699 z"
       id="path5393" />
    <path
       style="fill:#090101;fill-opacity:1;stroke-width:0.264583;filter:url(#filter9631)"
       d="m 46.521237,146.66017 c -19.186723,13.93009 -17.741148,15.37567 -17.741148,15.37567 l 5.256636,-1.70841 -8.279203,8.80487 7.096459,-2.62832 -7.753539,9.72478 5.913717,-2.75973 -7.75354,12.61592 6.045133,-2.89115 -8.016372,9.33054 3.416814,-0.7885 -0.131415,1.31416 1.97124,-1.97124 v 1.57699 l 2.102654,-1.44558 0.788495,1.05133 2.23407,-1.31416 0.788496,1.18275 1.839822,-2.89115 -0.525663,2.4969 1.57699,-2.62832 0.262832,3.41682 1.05133,-2.75974 0.525664,2.4969 2.102654,-2.23407 -0.394248,10.64469 15.112831,-0.78849 -1.576991,-9.98762 1.971238,1.18275 1.839823,-1.83982 0.262832,3.15398 0.525663,-3.41682 1.182746,2.49691 0.788495,-3.54823 1.971239,2.23407 0.394247,-2.62832 3.153982,4.73097 0.394248,-3.41681 3.679647,2.89115 -1.314161,-3.67965 6.045133,1.70841 -10.381858,-6.83363 5.125223,0.65708 -8.542036,-8.01637 4.073893,2.23407 -5.913716,-8.67345 3.285398,1.7084 -8.542036,-7.35929 5.782302,1.97124 -8.279204,-5.12522 5.12522,1.18275 5.125222,1.57699 z"
       id="path5395" />
    <ellipse
       style="mix-blend-mode:normal;fill:#adac9b;fill-opacity:0.435233;stroke-width:0.264583;filter:url(#filter9627)"
       id="path5449"
       ry="13.141593"
       rx="13.667256"
       cy="72.541588"
       cx="146.66017"
       transform="matrix(0.45532066,0,0,0.41454657,46.765951,78.477686)" />
    <path
       style="fill:url(#radialGradient9329);fill-opacity:1;stroke-width:0.264583;filter:url(#filter9623)"
       d="m 31.671238,64.130972 c -0.50951,-0.474609 -1.583637,-2.541447 -2.365486,-2.628318 -2.124638,-0.236071 -4.099854,0.824117 -5.782301,1.971239 -0.546734,0.372774 -2.136945,2.026938 -1.445575,2.891149 0.160059,0.200076 2.496903,1.008124 2.496903,0.788496 0,-0.0438 -0.08761,0 -0.131416,0 -0.131416,0 -0.262956,-0.0057 -0.394248,0 -2.77654,0.120721 -2.579613,-0.205886 -4.993806,1.314161 -0.446375,0.281051 -0.848719,0.643075 -1.182743,1.051328 -0.166435,0.203419 0,0.525663 0,0.788495 0,1.13352 0.03583,0.582634 1.051328,1.051327 0.28681,0.132374 0.531449,0.342059 0.788495,0.525664 0.05041,0.03601 0.07031,0.121232 0.131416,0.131416 0.216047,0.03601 0.438953,-0.01984 0.65708,0 0.494585,-0.395164 0.69373,0.211746 1.051327,0.262831 0.563746,0.08053 1.140615,0.04368 1.708407,0 0.140371,-0.0108 2.132856,-0.374113 1.31416,-0.919911 -0.115202,-0.0768 -1.298588,-0.0024 -1.31416,0 -0.315199,0.04849 -0.702315,0.02969 -0.919911,0.262832 -0.962161,1.030885 -1.205085,2.811317 -1.445576,4.073893 -0.0026,0.01373 -0.04103,0.895291 0,0.919911 0.531557,0.318934 3.174968,0.131416 3.285399,0.131416 0.574601,0 2.324324,0.163279 2.759735,0 0.09885,-0.03707 1.332275,-1.033209 1.051327,-1.314159 -0.03097,-0.03097 -0.09074,-0.01627 -0.131415,0 -1.085128,0.434051 -1.481242,0.559403 -1.576993,1.708406 -0.02546,0.305578 -0.129672,0.642044 0,0.919914 0.441512,0.946092 2.218562,2.166753 3.153983,2.496902 0.296111,0.104511 2.424287,0.05369 2.628318,0 1.529361,-0.402463 2.243201,-1.776558 2.759734,-3.153984 0.13843,-0.369144 0,-0.788495 0,-1.182743 0,-0.131416 -0.09292,-0.487172 0,-0.394248 0.425222,0.425223 0.167296,1.105631 0.394248,1.576991 0.498628,1.035614 1.356,2.787629 2.496904,3.548232 0.632537,0.421693 2.659195,0.119065 3.285398,-0.131416 0.178334,-0.07133 1.052639,-0.865465 1.182743,-1.051327 0.472609,-0.675156 0.394247,-0.655675 0.394247,-1.314159 0,-0.131416 -0.131416,-0.394248 0,-0.394248 0.306491,0 0.544492,0.565936 0.65708,0.65708 0.755975,0.611978 1.475978,1.314968 2.365486,1.708406 3.334432,1.474843 3.531944,1.314159 6.17655,1.314159 0.004,0 1.8411,0.07201 2.102654,-0.131416 0.71678,-0.557495 0.394248,-3.50308 0.394248,-4.336727 0,-0.235897 -0.429636,-0.490273 -0.262832,-0.657079 0.138525,-0.138523 0.389882,0.121618 0.525663,0.262832 3.041542,3.163204 2.040258,3.811063 5.519471,3.811063 0.262831,0 0.585073,0.166434 0.788495,0 0.349057,-0.285594 0.433319,-0.791162 0.657079,-1.182743 0.126728,-0.221774 0.313476,-0.414761 0.394248,-0.657079 0.261051,-0.783159 0.290221,-2.65787 -0.131416,-3.416816 -0.09026,-0.162462 -0.262832,-0.262832 -0.394248,-0.394248 -0.17522,-0.17522 -0.350443,-0.350441 -0.525663,-0.525663 -0.0438,-0.04381 -0.06947,-0.131416 -0.131416,-0.131416 -0.0438,0 -0.01537,0.0904 0,0.131416 0.117139,0.312369 0.209193,0.642331 0.394248,0.919911 0.481655,0.722487 1.264705,1.332222 1.839822,1.971238 0.105659,0.117398 0.134308,0.302448 0.262832,0.394248 0.206894,0.147783 1.439148,0.513678 1.576991,0.525666 0.147825,0.01286 3.044258,0.157144 3.548231,-0.262832 0.476192,-0.396827 0.651487,-2.214493 0.525664,-2.759736 -0.05744,-0.248886 -0.247772,-0.447826 -0.394248,-0.65708 -0.16085,-0.229785 -0.370075,-0.423695 -0.525663,-0.657079 -0.20338,-0.305067 0.606213,0.04027 -0.262832,-0.394248 -0.117544,-0.05877 -0.372644,-0.129627 -0.39425,0 -0.34898,2.093884 2.30456,1.971239 3.679647,1.971239 0.262832,0 0.543182,0.09435 0.788496,0 0.35171,-0.135274 0.760555,-0.315603 0.919911,-0.65708 0.185245,-0.396957 0,-0.876107 0,-1.314159 0,-1.598099 0.354663,-3.456397 -0.919911,-4.730972 -0.111684,-0.111683 -0.282567,-0.151151 -0.394248,-0.262832 -0.111683,-0.111683 -0.110456,-0.352692 -0.262832,-0.394247 -0.380357,-0.103736 -0.788495,0 -1.182743,0 -0.844486,0 -1.50296,-0.238747 -1.708406,0.788495 -0.146577,0.732877 2.685362,0.594437 2.891149,0.131416 0.101087,-0.227444 0.148802,-1.56209 0.131416,-1.576991 -0.268147,-0.229841 -0.644133,-0.305041 -0.919911,-0.525666 -0.171032,-0.136824 -0.205462,-0.414613 -0.394248,-0.525664 -1.545786,-0.909285 -1.437259,-0.788495 -2.759736,-0.788495 -0.08761,0 -0.206743,-0.06731 -0.262832,0 -0.876702,1.052044 -0.290044,2.140373 0.262832,3.153984 0.445804,0.817303 0.907542,1.91661 1.839825,2.365486 0.836324,0.402675 1.747732,0.626383 2.628318,0.919911 1.068464,0.356156 2.513428,-0.512154 3.022565,-1.445574 0.437923,-0.802857 0.399124,-5.115468 0,-5.913718 -0.39602,-0.792044 -1.880798,-2.981899 -3.022565,-3.679645 -1.180404,-0.721358 -4.089884,-0.860637 -5.256639,-0.131416 -0.809847,0.506153 -0.657079,0.980847 -0.657079,1.708406 0,0.131416 -0.04156,0.269576 0,0.394248 0.01386,0.04156 0.155715,0.03645 0.131416,0 -0.10309,-0.154636 -0.267785,-0.258059 -0.394248,-0.394248 -0.443119,-0.477205 -0.731697,-1.154342 -1.314159,-1.445574 -0.187013,-0.09351 -4.357854,-0.236504 -4.599556,-0.131416 -0.473041,0.205668 -1.741855,1.723212 -1.971238,2.365486 -0.117867,0.330025 0,0.700886 0,1.051327 0,0.175223 -0.07836,0.368943 0,0.525663 0.03918,0.07836 0.17522,0 0.262831,0 1.256507,0 2.689582,0.150517 3.416814,-1.182743 0.10488,-0.192283 0.03601,-0.441034 0,-0.657079 -0.282382,-1.694286 -2.577894,-3.30713 -4.205312,-3.548229 -1.595519,-0.236374 -2.528027,0.01056 -3.942477,0.788495 -0.718486,0.395166 -0.740931,0.861071 -0.919911,1.576991 -0.40871,1.634839 -0.37084,1.452062 0.65708,2.89115 0.01471,0.02061 0.608692,0.919911 0.788495,0.919911 0.04381,0 0.01064,-0.08892 0,-0.131416 -0.07735,-0.309385 -0.04472,-0.687255 -0.262832,-0.919911 -0.255032,-0.272034 -1.713754,-1.445575 -2.496902,-1.445575 -1.599165,0 -6.04148,-0.532969 -6.965045,1.314159 -0.01484,0.02969 -0.314801,1.840568 0,2.23407 0.13765,0.172064 1.343552,0.199432 1.445575,0.131416 0.85807,-0.572045 0.761185,-2.676022 0.788495,-3.153982 0.102495,-1.793628 0.349261,-2.936136 -0.919911,-4.205308 -0.638188,-0.638188 -1.073142,-0.54269 -2.102654,-0.65708 -2.149504,-0.238834 -2.186842,0.195326 -3.022566,1.971239 -0.31827,0.67632 -0.373824,0.875964 -0.262831,1.708406 0.113096,0.848223 0.570886,1.29862 1.051327,1.971239 0.07695,0.107733 0.497355,0.555659 0.657079,0.262832 1.003538,-1.83982 -0.23895,-2.836863 -1.314159,-4.205309 -0.136358,-0.173546 -1.139116,-1.635429 -1.576991,-1.708407 -0.596294,-0.09938 -2.016331,-0.06408 -2.496904,0 -1.32221,0.176295 -2.93647,1.773677 -3.416813,3.022566 -0.181827,0.472749 -0.131416,1.233472 -0.131416,1.708407 0,0.219027 -0.05763,0.44577 0,0.657079 0.152376,0.55871 0.955603,1.402175 1.445575,1.708407 0.153162,0.09573 0.386913,0.01579 0.525663,0.131416 0.150498,0.125415 0.145291,0.368942 0.262832,0.525663 0.356087,0.474782 -0.06016,-1.452295 -0.131416,-1.576991 -0.0486,-0.08504 -0.193569,-0.06215 -0.262832,-0.131416 -0.198337,-0.198336 -0.327326,-0.458742 -0.525663,-0.657079 -0.148622,-0.148622 -1.943286,-0.204674 -2.234071,-0.262832 z"
       id="path8794" />
    <path
       style="fill:#adac9b;fill-opacity:0.222798;stroke-width:0.264583"
       d="m 50.726548,62.685397 3.679645,2.234071"
       id="path9331" />
    <path
       style="fill:url(#radialGradient9396);fill-opacity:1;stroke-width:0.264583;filter:url(#filter9619)"
       d="m 45.46991,84.106193 c -3.697174,-1.301675 -7.454082,-1.051327 -11.30177,-1.051327 -1.489379,0 -2.978761,0 -4.46814,0 -3.844657,0 -5.50099,-0.237736 -8.936283,0.525664 -0.08553,0.019 -0.175222,0 -0.262832,0 -0.700885,0.08761 -1.427551,0.05511 -2.102655,0.262832 -0.488263,0.150235 -0.829521,0.626948 -1.31416,0.788495 -0.471579,0.157194 -2.056917,0.119981 -2.628318,0.262832 -0.398771,0.09969 -0.345429,2.761355 -0.262832,2.891149 1.21967,1.916626 1.787564,1.335951 3.416814,2.102657 0.993272,0.467421 1.853785,1.217901 2.891151,1.576991 3.045055,1.054058 6.06072,0.788496 9.199115,0.788496 3.854868,0 7.709733,0 11.564601,0 2.89115,0 5.792288,-0.240097 8.673452,0 5.545331,0.46211 -0.02434,0.474924 4.730972,1.051327 2.181299,0.2644 4.388017,0.273804 6.570798,0.525663 4.172733,-0.133924 8.033316,1.579179 12.090264,2.102655 2.548539,0.328845 6.809881,0 9.461947,0 7.622125,0 15.244247,0 22.866376,0 1.34373,0 3.17638,0.271949 4.46814,0 1.08442,-0.228299 2.08621,-0.754724 3.15398,-1.051328 1.02695,-0.285263 2.17014,-0.115728 3.15398,-0.525663 1.30188,0.291425 1.31904,-1.185185 2.10266,-1.576991 0.15672,-0.07836 0.35044,0 0.52566,0 0.0876,-0.08761 0.38549,-0.245311 0.26283,-0.262832 -2.16825,-0.30975 -4.38053,0 -6.57079,0 -5.69469,0 -11.38938,0 -17.084075,0 -1.489379,0 -2.996615,0.229926 -4.468141,0 -15.337096,-2.396421 4.123693,-0.804897 -6.570797,-1.314159 -5.42095,-0.25814 -0.428048,-0.152069 -5.519468,-0.788495 -2.109358,-0.263671 -4.509886,0.475594 -6.570797,0 -0.426836,-0.0985 -0.624493,-0.689996 -1.051327,-0.788495 -0.768302,-0.177303 -1.580904,0.07846 -2.365486,0 -8.450953,-1.536539 0.38204,-0.108633 -4.205311,-0.525664 -0.530725,-0.04825 -1.046721,-0.209807 -1.576991,-0.262832 -0.348702,-0.03487 -0.715664,0.100698 -1.051327,0 -0.214527,-0.06436 -1.778527,-1.002416 -2.365486,-1.05133 -5.700176,0 -0.238324,0.191239 -3.416816,-0.262831 -0.328245,-0.04689 -1.219716,0.119091 -1.576991,0 -1.140735,-0.380246 -2.23702,-1.380358 -3.416813,-1.576991 -0.996273,-0.166045 -1.931107,-0.04564 -2.89115,-0.525664 -0.631769,-0.315883 -1.140584,-0.951436 -1.839825,-1.051327 -2.86044,-0.408633 -5.791208,-0.262832 -8.673449,-0.262832"
       id="path9386" />
    <path
       style="fill:#adac9b;fill-opacity:0.222798;stroke-width:0.264583;filter:url(#filter9615)"
       d="m 64.656637,88.837167 c 12.265488,0 24.530973,0 36.796463,0 3.15398,0 6.30796,0 9.46194,0 2.54071,0 5.08142,0 7.62213,0 0.26283,0 0.53675,0.07552 0.78849,0 0.63909,-0.191725 1.20684,-0.577501 1.83982,-0.788496 0.16623,-0.05541 0.35462,0.03801 0.52567,0 5.04212,-1.120471 -2.97743,-0.134424 6.83363,-0.788495 6.54111,-0.436073 -0.62473,0.100711 5.51947,-1.051327 1.7222,-0.322914 3.50442,0 5.25663,0 5.60708,0 11.21416,0 16.82124,0 1.48938,0 2.97876,0 4.46814,0 0.35304,0 1.09231,0.180871 1.31416,-0.262832 0.168,-0.336005 -0.41323,-0.694804 -0.52566,-0.788496 -0.86192,-0.718264 -1.67097,-1.517607 -2.62832,-2.102654 -0.63872,-0.390329 -1.40177,-0.525663 -2.10265,-0.788495 -1.40177,-0.525664 -2.7787,-1.123069 -4.20532,-1.576991 -2.88172,-0.916916 -6.207,-0.525666 -9.19911,-0.525666 -1.90061,0 -5.25488,-0.338302 -6.83363,0 -0.65241,0.139803 -1.18403,0.665535 -1.83982,0.788498 -0.77499,0.145309 -1.58066,-0.07595 -2.36549,0 -1.93622,0.187375 -3.86984,0.432689 -5.7823,0.788495 -1.85935,0.345924 -3.65766,0.981694 -5.51947,1.314159 -0.60372,0.107807 -1.22906,-0.05552 -1.83982,0 -1.32035,0.120031 -2.61944,0.440307 -3.94248,0.525664 -2.50693,0.161737 -5.09587,0 -7.62212,0 -5.43186,0 -10.863719,0 -16.295575,0 -4.126627,0 -8.774416,-0.34203 -12.878763,0 -3.376723,0.281392 -6.852745,0.525663 -10.250442,0.525663 -1.752211,0 -3.519141,-0.226629 -5.256636,0 -0.824166,0.107501 -1.576991,0.525664 -2.365486,0.788496 -1.314162,0.17522 -2.62577,0.370758 -3.942479,0.525663 -1.386248,0.163089 -2.822914,-0.230399 -4.205309,0 -0.311587,0.05193 -0.484764,0.438883 -0.788495,0.525664 -1.286743,0.367641 -3.915405,-0.08383 -5.256639,0 -4.800028,0.300003 -0.0748,0.262832 -2.628318,0.262832 -0.613275,0 -1.226547,0 -1.839822,0 -0.175223,0 -0.525664,-0.175221 -0.525664,0 0,0.08761 0.182303,-0.03451 0.262832,0 0.540189,0.23151 0.99876,0.683363 1.576991,0.788495 3.303735,0.600681 6.64188,1.028549 9.98761,1.314159 3.844864,0.328221 7.743563,-0.0132 11.564602,0.525664 3.051161,0.430291 5.946931,1.618149 8.936283,2.365488 2.207247,0.55181 8.037888,0.750697 10.513274,0.525664 1.301356,-0.118306 1.973673,-0.697235 3.153982,-1.05133 0.510439,-0.15313 1.082193,-0.06491 1.576991,-0.262832 1.3169,-0.526759 0.832432,-0.832318 2.365488,-1.051327 3.679646,-0.525663 -0.525663,0.262832 1.576986,0 4.60487,-0.575606 8.759599,-0.525663 13.404429,-0.525663"
       id="path9400" />
    <path
       style="fill:#adac9b;fill-opacity:0.222798;stroke-width:0.264583"
       d="m -17.08407,80.68938 -0.525664,-2.365486"
       id="path9402" />
    <path
       style="fill:url(#radialGradient9412);fill-opacity:1;stroke-width:0.264583;filter:url(#filter9611)"
       d="m 15.769911,96.984954 c 3.416814,-3.767257 5.182435,-11.728548 10.250443,-11.30177 6.612486,0.556842 9.686476,9.078579 14.718584,13.404427 0.148555,0.127706 0.131778,-0.38005 0.262832,-0.525667 0.663077,-0.736753 1.328655,-1.483455 2.102654,-2.102654 1.861018,-1.488813 3.779649,-2.913277 5.782302,-4.205308 4.376528,-2.823568 7.035964,0.540702 10.250442,3.416813 0.836134,0.74812 1.539854,1.830538 2.628318,2.102654 3.076117,0.76903 12.189934,-5.619136 14.455751,-7.884954 0.138525,-0.138525 0.09983,-0.416996 0.262832,-0.525663 1.117394,-0.744929 4.832919,1.794494 5.256638,2.102654 5.839391,4.24683 -1.566828,0.559385 3.679645,2.89115 0.17902,0.07956 0.33173,0.235127 0.525664,0.262832 2.250533,0.321505 4.581612,-0.319567 6.570797,-1.314159 0.501756,-0.250878 0.764072,-0.941311 1.314159,-1.051327 1.812729,-0.362546 3.305302,1.287986 4.730972,2.102654 1.395693,0.797539 3.760826,1.863325 5.256636,2.102654 2.53346,0.405352 5.35117,-0.46069 7.88496,0 0.62752,0.114096 1.29662,0.191386 1.83982,0.525664 0.84747,0.52152 2.9673,3.192056 3.94248,3.679646 0.54232,0.27116 0.6477,-0.45989 0.78849,0.52566 0.23541,1.64787 0.0831,3.33128 0,4.99381 -0.11623,2.32465 -0.55878,1.83982 -2.62831,1.83982 -3.93708,0 -2.18536,0.13629 -6.5708,-0.52566 -3.41681,-0.52567 -6.83363,-1.05133 -10.250441,-1.57699 -1.576993,-0.35045 -3.137495,-0.78575 -4.730975,-1.05133 -1.037024,-0.17284 -2.102654,0 -3.153981,0 -3.135564,0 -5.592482,0.63232 -8.41062,2.10265 -1.079085,0.56301 -2.047537,1.33271 -3.153982,1.83983 -6.82304,3.12722 -7.093878,-1.27468 -11.038938,-6.83363 -0.161668,-0.22781 -2.146075,-3.428867 -3.153984,-3.153981 -5.428091,1.480381 -4.269229,1.590301 -8.673451,4.205311 -1.551189,0.92101 -3.156961,1.74687 -4.730972,2.62832 -0.616286,0.34512 -1.17601,0.80994 -1.839823,1.05132 -0.329343,0.11976 -0.700887,0 -1.051327,0 -0.788496,0 -1.576991,0 -2.365489,0 -4.501099,0 -8.716301,-1.52038 -13.141592,-2.10265 -1.302927,-0.17144 -2.628318,0 -3.942477,0 -1.051327,0 -2.10739,-0.0997 -3.153983,0 -1.646005,0.15676 -5.425013,2.19711 -7.09646,0.52566 -0.315884,-0.31588 -0.105975,-0.89587 -0.262831,-1.31416 -0.118211,-0.31522 -0.966401,-0.97445 -1.051328,-1.31416 -0.06375,-0.25498 0.03717,-0.5283 0,-0.78849 -0.163876,-1.14714 -0.276033,-0.8413 -0.525663,-1.839824 -0.155753,-0.623009 0.467256,0.116814 0,-1.051327 -0.09203,-0.230079 -0.364398,-0.337521 -0.525664,-0.525666 -1.491178,-1.739707 -1.311615,-0.923727 0,-2.89115"
       id="path9404" />
    <path
       style="fill:#adac9b;fill-opacity:0.222798;stroke-width:0.264583"
       d="m -22.340708,102.76726 -20.763716,4.9938"
       id="path9414" />
    <path
       style="opacity:0.854;fill:#000000;fill-opacity:1;fill-rule:nonzero;stroke:#d79e9e;stroke-width:0.264583;stroke-opacity:0"
       d="m 99.058149,96.920872 c 8.734961,-2.323127 10.035911,-0.185849 10.035911,-0.185849 l 1.39388,-0.929251 7.15523,2.137278 -8.17741,-0.929251 -9.942984,0.09292 z"
       id="path9891" />
    <path
       style="opacity:0.854;fill:#000000;fill-opacity:1;fill-rule:nonzero;stroke:#d79e9e;stroke-width:0.264583;stroke-opacity:0"
       d="m 235.49734,98.824776 30.48849,9.461944"
       id="path10001" />
  </g>
</svg>
